<svg width="451" height="321" viewBox="0 0 451 321" fill="none" xmlns="http://www.w3.org/2000/svg">
    <path d="M110.886 187.919C98.3164 164.013 70.5889 149.558 91.2743 117.191C109.983 87.918 150.03 68.2217 188.663 66.2218C207.826 65.2298 221.173 83.2713 230.161 93.4246C239.03 103.444 236.953 116.952 244.999 96.0585C254.994 70.1014 266.793 53.2144 292.065 33.0187C299.973 26.6994 323.252 6.82046 333.671 13.6545C363.396 33.1517 390.62 54.4632 366.147 92.7554C355.394 109.581 342.028 122.944 322.435 133.975C313.24 139.152 295.484 150.203 310.693 155.662C342.538 167.094 395.919 176.409 406.756 206.857C417.936 238.271 384.089 259.054 349.411 271.396C332.714 277.338 323.029 271.901 310.543 264.603C306.698 262.355 292.882 244.728 293.58 249.054C299.971 288.664 284.887 319.676 241.529 344.088C188.913 373.711 152.734 315.066 162.934 279.482C166.355 267.545 150.25 300.432 145.766 305.019C136.705 314.286 115.763 324.331 102.706 328.978C70.4465 340.459 60.9515 297.581 55.0319 280.949C47.3691 259.417 43.4573 243.829 65.2043 223.604C78.2257 211.494 108.308 188.837 125.691 182.65" stroke="#FEF9F2" stroke-width="22.5443" stroke-linecap="round"/>
    <path d="M220.694 192.01C225.931 206.725 240.276 200.162 234.817 184.825C232.27 177.668 225.382 181.319 217.967 184.346C210.176 187.526 216.929 197.053 218.486 201.43" stroke="#FEF9F2" stroke-width="22.5443" stroke-linecap="round"/>
</svg>
