<svg width="14" height="18" viewBox="0 0 14 18" fill="none" xmlns="http://www.w3.org/2000/svg">
<path d="M9.71777 6.19043L9.33984 5.8125L7.62207 4.0957L7.62207 7.75L6.51953 7.75L6.51953 4.0957L4.80176 5.8125L4.42383 6.18945L4.0459 5.8125L4.03418 5.80078L3.62891 5.42676L4.02148 5.0332L6.69238 2.3623L7.05566 2L7.43262 2.34766L7.44531 2.35937L7.45312 2.36621L7.46094 2.37402L10.1191 5.0332L10.4971 5.41113L9.71777 6.19043ZM10.1074 13.4658L7.43652 16.1367L7.07324 16.499L6.69629 16.1514L6.68359 16.1396L6.67578 16.1328L6.66797 16.125L4.00977 13.4658L3.63184 13.0879L4.41113 12.3086L4.78906 12.6865L6.50684 14.4033L6.50684 10.749L7.60937 10.749L7.60937 14.4033L9.32715 12.6865L9.70508 12.3096L10.083 12.6865L10.0947 12.6982L10.5 13.0723L10.1074 13.4658Z" fill="#535353"/>
</svg>
