<svg width="18" height="18" viewBox="0 0 14 14" fill="none" xmlns="http://www.w3.org/2000/svg">
<path d="M9.25 8.5L13 4.75L9.25 1" stroke="#424242" stroke-width="1.5" stroke-linecap="round" stroke-linejoin="round"/>
<path d="M13 4.75H5.125C4.5833 4.75 4.0469 4.8567 3.54643 5.064C3.04596 5.2713 2.59123 5.57514 2.20818 5.95818C1.82514 6.34123 1.5213 6.79596 1.314 7.29643C1.1067 7.7969 1 8.3333 1 8.875C1 9.4167 1.1067 9.9531 1.314 10.4536C1.5213 10.954 1.82514 11.4088 2.20818 11.7918C2.59123 12.1749 3.04596 12.4787 3.54643 12.686C4.0469 12.8933 4.5833 13 5.125 13H7.75" stroke="#424242" stroke-width="1.5" stroke-linecap="round" stroke-linejoin="round"/>
</svg>
