<svg width="20" height="19" viewBox="0 0 20 19" fill="none" xmlns="http://www.w3.org/2000/svg">
<path d="M15.5569 18.9951C15.3966 18.9957 15.2385 18.958 15.0959 18.8851L9.98497 16.2164L4.87405 18.8851C4.70808 18.9722 4.52097 19.011 4.33397 18.9973C4.14697 18.9835 3.96759 18.9178 3.81621 18.8074C3.66484 18.697 3.54755 18.5465 3.47768 18.3729C3.4078 18.1994 3.38814 18.0098 3.42094 17.8256L4.42308 12.1983L0.294259 8.20022C0.165441 8.072 0.0740596 7.91122 0.0299215 7.73513C-0.0142167 7.55904 -0.00944543 7.37428 0.0437232 7.20069C0.101807 7.02305 0.208652 6.86521 0.352133 6.74507C0.495613 6.62493 0.669984 6.54731 0.855458 6.52102L6.56767 5.69141L9.08304 0.563842C9.1651 0.394852 9.29323 0.252333 9.45274 0.152611C9.61226 0.0528901 9.79671 0 9.98497 0C10.1732 0 10.3577 0.0528901 10.5172 0.152611C10.6767 0.252333 10.8048 0.394852 10.8869 0.563842L13.4323 5.68141L19.1445 6.51102C19.33 6.53731 19.5044 6.61493 19.6479 6.73507C19.7913 6.85521 19.8982 7.01306 19.9563 7.1907C20.0094 7.36429 20.0142 7.54905 19.9701 7.72514C19.9259 7.90123 19.8346 8.06201 19.7057 8.19022L15.5769 12.1883L16.5791 17.8157C16.6148 18.003 16.5961 18.1967 16.5251 18.3738C16.454 18.551 16.3337 18.7041 16.1782 18.8152C15.9967 18.942 15.7782 19.0053 15.5569 18.9951Z" fill="#231F20"/>
</svg>
