<svg width="18" height="18" viewBox="0 0 14 14" fill="none" xmlns="http://www.w3.org/2000/svg">
<path d="M4.75 8.5L1 4.75L4.75 1" stroke="#424242" stroke-width="1.5" stroke-linecap="round" stroke-linejoin="round"/>
<path d="M1 4.75H8.875C9.4167 4.75 9.9531 4.8567 10.4536 5.064C10.954 5.2713 11.4088 5.57514 11.7918 5.95818C12.1749 6.34123 12.4787 6.79596 12.686 7.29643C12.8933 7.7969 13 8.3333 13 8.875C13 9.4167 12.8933 9.9531 12.686 10.4536C12.4787 10.954 12.1749 11.4088 11.7918 11.7918C11.4088 12.1749 10.954 12.4787 10.4536 12.686C9.9531 12.8933 9.4167 13 8.875 13H6.25" stroke="#424242" stroke-width="1.5" stroke-linecap="round" stroke-linejoin="round"/>
</svg>
