<svg width="12" height="12" viewBox="0 0 12 12" fill="none" xmlns="http://www.w3.org/2000/svg">
<path fill-rule="evenodd" clip-rule="evenodd" d="M1.29118 0.552998C0.995804 0.262608 0.516906 0.262608 0.221531 0.552998C-0.0738438 0.843388 -0.0738438 1.3142 0.221531 1.60459L4.69257 6.00018L0.221783 10.3955C-0.073592 10.6859 -0.0735923 11.1567 0.221783 11.4471C0.517158 11.7375 0.996056 11.7375 1.29143 11.4471L5.76222 7.05177L10.0481 11.2653C10.3435 11.5557 10.8224 11.5557 11.1178 11.2653C11.4131 10.9749 11.4131 10.5041 11.1178 10.2137L6.83187 6.00018L11.118 1.78637C11.4134 1.49598 11.4134 1.02517 11.118 0.734776C10.8226 0.444386 10.3437 0.444386 10.0484 0.734776L5.76222 4.94858L1.29118 0.552998Z" fill="#424242"/>
</svg>
