<svg viewBox="0 0 653 87" fill="none" xmlns="http://www.w3.org/2000/svg">
<path d="M628.302 14.1182C645.882 14.1182 653 24.7526 653 41.4375C653 58.489 643.566 68.7568 629.331 68.7568C620.327 68.7568 614.323 61.7895 611.493 55.4639L610.808 55.3721V87H603.689V34.1406C601.925 34.9294 599.753 35.8864 597.307 36.8867C597.813 39.2617 598.07 41.6906 598.07 44.0957C598.07 61.9723 589.666 69.3983 575.859 69.3984C552.191 69.3984 549.446 46.0211 549.446 45.7461L556.563 45.4707C556.563 45.4707 558.794 61.7891 575.859 61.7891C584.692 61.7889 590.952 57.3885 590.952 44.0957C590.952 42.5439 590.819 40.9883 590.558 39.4629C588.105 40.3267 585.532 41.1486 582.926 41.8486C571.183 45.0026 566.714 44.2793 564.968 44.2793C559.308 44.0959 551.762 42.6291 551.762 32.7285C551.762 20.9024 561.623 15.0352 572.857 15.0352C583.583 15.0352 591.073 21.443 594.966 29.8311C598.68 28.2886 601.75 26.8491 603.689 25.9492V16.3184H610.808V27.3193H611.493C615.181 19.2519 621.013 14.1182 628.302 14.1182ZM353.823 14.3574C356.658 13.3891 360.067 13.5202 364.075 14.877C367.641 16.084 370.178 17.9903 371.568 20.5752C372.941 23.129 372.887 25.779 372.428 27.8887C372.313 28.4136 372.172 28.9228 372.011 29.4102C372.689 29.4536 373.39 29.5357 374.09 29.6738C376.246 30.0992 378.836 31.1406 380.545 33.627C382.278 36.1494 382.599 39.4169 381.765 43.1953C380.837 47.3975 379.206 50.4268 376.917 52.3506C374.583 54.3118 371.926 54.8205 369.602 54.6826C369.587 54.6817 369.572 54.6806 369.557 54.6797C369.652 54.9771 369.742 55.2792 369.826 55.585C370.434 57.805 370.796 60.5767 369.928 63.2236C368.997 66.0632 366.823 68.2471 363.406 69.4199C359.762 70.6706 356.532 70.6648 353.759 69.6025C351.019 68.553 349.11 66.6194 347.82 64.7119C347.171 63.7509 346.656 62.7631 346.248 61.833C345.783 62.1348 345.287 62.4375 344.764 62.7246C341.796 64.3521 336.802 66.1507 332.173 63.0996C332.109 63.0576 332.046 63.0131 331.985 62.9668C327.812 59.785 325.325 54.2344 326.108 48.9941C326.511 46.3056 327.775 43.7377 330.047 41.7295C330.401 41.4161 330.779 41.1216 331.174 40.8428C328.958 39.1728 327.273 37.0685 326.237 34.6641C324.176 29.8785 324.931 24.4528 328.353 20.0928C330.275 17.6432 332.541 16.0484 335.082 15.4248C337.624 14.8009 340.1 15.2333 342.274 16.2197C344.217 17.1013 345.99 18.45 347.528 20.0391C347.655 19.7864 347.792 19.5336 347.938 19.2832C349.106 17.2867 350.965 15.3341 353.823 14.3574ZM86.3008 17.5742C86.3011 17.7987 86.6502 62.3113 101.308 62.3115C107.996 62.3115 110.827 59.5614 113.742 56.5361C113.313 55.9859 104.31 44.8927 104.31 29.583C104.31 19.4993 109.969 17.5743 112.799 17.5742C117.601 17.5742 127.893 20.9659 127.893 38.0176C127.893 44.4348 126.177 50.9436 123.004 56.2607C126.177 59.4694 130.465 62.2197 135.61 62.2197C147.959 62.2195 147.531 39.7596 142.214 17.666H149.503C156.535 47.0019 153.019 69.829 135.61 69.8291C129.522 69.8291 123.69 67.1701 118.545 62.1279C114.6 66.1617 109.283 69.9209 101.65 69.9209C76.6999 69.9204 79.1818 18.1417 79.1826 17.5742H86.3008ZM25.3838 0C32.0728 0 33.3594 8.1594 33.3594 11.2764C33.3592 35.5702 19.0375 52.8965 16.4648 56.5635C17.1509 58.947 17.7515 62.1561 20.667 62.1562C22.6394 62.1562 24.9552 60.8722 26.8418 59.4971L30.958 65.6396C26.9276 68.7565 23.5832 69.8564 20.9248 69.8564C14.6648 69.8564 12.1776 64.8148 11.1484 62.7979C7.80395 66.1898 3.94478 68.5732 0 68.5732V60.9639C2.40117 60.9639 5.48834 58.5806 8.74707 54.5469C8.23255 51.3383 7.9756 48.0381 7.97559 45.1045C7.97559 12.6515 19.9811 7.74148e-05 25.3838 0ZM55.5244 14.7598C73.4475 14.7598 75.6768 33.2781 75.6768 41.2539V45.1045H39.0596C39.8314 56.4721 45.148 61.789 55.5244 61.7891C59.2977 61.7891 64.2712 60.2306 66.9297 56.6553L72.5039 61.5146C68.0446 67.2899 60.8412 69.3984 55.5244 69.3984C40.2599 69.3984 31.8555 59.6807 31.8555 42.0791C31.8555 33.8283 35.8005 14.7598 55.5244 14.7598ZM254.873 16.749C254.873 16.9533 255.219 61.4857 269.88 61.4863C276.569 61.4863 279.399 58.7362 282.314 55.7109C281.883 55.1582 272.882 44.0664 272.882 28.7588C272.882 18.675 278.541 16.7492 281.371 16.749C286.173 16.749 296.465 20.1409 296.465 37.1924C296.465 43.6096 294.749 50.1184 291.576 55.4355C294.749 58.6442 299.037 61.3945 304.183 61.3945C316.531 61.3945 316.103 38.9345 310.786 16.8408H318.075C325.107 46.1769 321.591 69.0039 304.183 69.0039C298.094 69.0039 292.263 66.3449 287.117 61.3027C283.172 65.3364 277.856 69.0956 270.224 69.0957C245.271 69.0957 247.754 17.3076 247.755 16.749H254.873ZM178.23 14.668C194.953 14.668 200.527 26.1276 200.784 26.5859L194.524 30.0693C194.353 29.7943 190.408 22.1856 178.23 22.1855C174.028 22.1855 164.338 23.0105 164.338 30.8027C164.338 35.5698 166.653 37.9537 179.345 38.4121C186.034 38.6871 203.786 39.2371 203.786 52.9883C203.786 68.8481 187.063 68.8486 179.945 68.8486C160.223 68.8485 156.192 54.5489 156.02 53.9053L162.88 51.8887C162.968 52.1706 165.801 61.331 179.945 61.3311C196.668 61.3311 196.668 56.472 196.668 52.9883C196.668 51.4297 196.667 46.5715 179.088 46.0215C171.456 45.7465 157.306 45.2875 157.306 30.8027C157.306 22.9187 162.794 14.668 178.23 14.668ZM480.126 13.9346C496.846 13.9346 502.421 25.3908 502.68 25.8525L496.42 29.3359C496.246 29.0568 492.3 21.4521 480.126 21.4521C475.924 21.4522 466.234 22.2774 466.233 30.0693C466.233 34.8365 468.549 37.2203 481.241 37.6787C487.93 37.9537 505.681 38.5039 505.682 52.2549C505.682 68.1144 488.96 68.1152 481.842 68.1152C462.118 68.1152 458.087 53.8136 457.915 53.1719L464.776 51.1553C464.865 51.4383 467.698 60.5977 481.842 60.5977C498.564 60.5976 498.563 55.7385 498.563 52.2549C498.563 50.6962 498.563 45.8381 480.983 45.2881C473.351 45.0131 459.202 44.5538 459.202 30.0693C459.202 22.1854 464.69 13.9347 480.126 13.9346ZM429.652 33.3701H430.682L449.634 16.2266H460.868L432.911 41.3457H433.77L441.658 49.2295L460.868 66.5566H449.634L430.425 49.0469H429.652V66.4648H422.535V0H429.652V33.3701ZM410.111 14.1182C415.171 14.1182 418.687 15.9514 421.002 18.8848L415.771 24.5693C414.656 22.8276 412.77 21.7276 410.111 21.7275C399.821 21.7275 393.475 32.8202 393.475 43.0879V66.4648H386.356V16.2266H393.475V27.3193H394.16C396.99 20.9937 401.107 14.1182 410.111 14.1182ZM515.744 27.3193H516.43C519.26 20.9937 523.376 14.1182 532.381 14.1182C543.014 14.1183 546.873 22.0937 546.959 32.1777V66.4648H539.842V32.1777C539.842 26.2191 537.955 21.7276 532.381 21.7275C522.09 21.7275 515.744 32.8202 515.744 43.0879V66.4648H508.626V2.29199H515.744V27.3193ZM362.167 21.0713C359.083 20.0275 357.179 20.1656 356.031 20.5576C354.908 20.9413 354.117 21.7023 353.521 22.7197C352.904 23.7763 352.557 25.0204 352.376 26.082C352.288 26.5972 352.246 27.0334 352.226 27.3301C352.215 27.4772 352.211 27.5876 352.209 27.6533C352.208 27.6781 352.208 27.6966 352.208 27.708C352.211 29.2227 351.183 30.515 349.727 30.8291C348.269 31.1431 346.763 30.3956 346.09 29.0244C344.565 25.9208 342.119 23.245 339.758 22.1738C338.645 21.669 337.654 21.5601 336.757 21.7803C335.858 22.001 334.71 22.6366 333.453 24.2383C331.365 26.8992 331.127 29.805 332.151 32.1826C333.185 34.5835 335.755 36.9902 340.319 37.9824C341.865 38.3188 342.975 39.7262 342.948 41.3164C342.922 42.9067 341.766 44.2174 340.211 44.4199C337.322 44.7958 335.492 45.7074 334.369 46.7002C333.264 47.6772 332.688 48.8658 332.498 50.1348C332.103 52.7748 333.393 55.8971 335.697 57.709C337.102 58.5668 339.09 58.3208 341.573 56.959C342.732 56.3236 343.759 55.5664 344.507 54.9541C344.876 54.6519 345.167 54.3939 345.359 54.2168C345.455 54.1286 345.527 54.0605 345.57 54.0186C345.592 53.9977 345.607 53.9831 345.614 53.9756H345.616L345.615 53.9746C346.476 53.1102 347.76 52.8276 348.928 53.2451C350.092 53.6617 350.94 54.7025 351.118 55.9326C351.118 55.9336 351.118 55.9361 351.118 55.9375C351.12 55.9482 351.123 55.9709 351.129 56.0039C351.141 56.0721 351.161 56.1852 351.192 56.335C351.255 56.6364 351.359 57.0798 351.518 57.6055C351.841 58.6814 352.357 59.9803 353.124 61.1152C353.883 62.2372 354.795 63.0691 355.909 63.4961C356.991 63.9103 358.651 64.0939 361.189 63.2227C362.993 62.6038 363.554 61.7415 363.79 61.0225C364.089 60.1106 364.049 58.8086 363.603 57.1797C363.169 55.5964 362.444 54.0347 361.789 52.8271C361.468 52.2345 361.177 51.7517 360.971 51.4229C360.868 51.259 360.787 51.1345 360.734 51.0557C360.708 51.0164 360.689 50.9884 360.679 50.9727C360.673 50.9649 360.67 50.9597 360.669 50.958L360.515 50.7129C359.786 49.4405 359.962 47.8374 360.977 46.8008C362.058 45.6961 363.785 45.5491 365.083 46.4512C365.092 46.4575 365.108 46.4685 365.13 46.4824C365.185 46.5184 365.279 46.5778 365.406 46.6533C365.662 46.8055 366.043 47.0173 366.512 47.2354C367.483 47.6872 368.666 48.089 369.814 48.1572C370.901 48.2217 371.864 47.9903 372.713 47.2773C373.606 46.527 374.72 44.9476 375.456 41.6143C376.064 38.8584 375.57 37.7019 375.271 37.2656C374.946 36.7939 374.286 36.3415 373.011 36.0898C371.752 35.8416 370.311 35.8795 369.09 36.0166C368.499 36.0829 368.001 36.168 367.658 36.2344C367.487 36.2674 367.356 36.295 367.274 36.3135C367.234 36.3227 367.205 36.3303 367.189 36.334C367.186 36.3348 367.183 36.3345 367.181 36.335H367.182C365.833 36.6741 364.4 36.0913 363.63 34.8906C362.86 33.6896 362.928 32.1432 363.8 31.0596H363.799C363.806 31.0502 363.822 31.0312 363.844 31.0029C363.887 30.9462 363.956 30.8523 364.044 30.7275C364.222 30.4765 364.472 30.1045 364.742 29.6445C365.3 28.6944 365.859 27.5088 366.116 26.3271C366.372 25.1535 366.275 24.2625 365.91 23.584C365.562 22.9364 364.666 21.9172 362.167 21.0713ZM628.302 21.7275C616.896 21.7276 610.894 33.7367 610.894 41.3457C610.894 52.6218 618.783 61.1475 628.474 61.1475C642.795 61.0557 645.882 50.4216 645.882 41.4375C645.882 27.7778 640.479 21.7275 628.302 21.7275ZM113.485 25.1826C112.028 25.1826 111.427 27.108 111.427 29.583C111.427 35.4502 114.086 43.6101 118.116 50.0273C119.831 46.3603 120.774 42.2346 120.774 38.0176C120.774 32.1505 118.202 25.1829 113.485 25.1826ZM282.058 24.3584C280.6 24.3584 279.999 26.2836 279.999 28.7588C279.999 34.626 282.658 42.785 286.688 49.2021C288.404 45.5351 289.347 41.4095 289.347 37.1924C289.347 31.3252 286.774 24.3585 282.058 24.3584ZM365.078 46.4473L365.083 46.4512C365.081 46.4496 365.079 46.4483 365.077 46.4473C365.076 46.4464 365.074 46.4458 365.073 46.4453C365.074 46.4459 365.076 46.446 365.078 46.4473ZM349.634 38.1689C350.987 35.7478 359.59 36.3599 356.64 43.2393C355.088 46.8602 346.213 46.8837 349.634 38.1689ZM25.6406 7.60938C22.6393 7.61036 19.4663 16.7766 18.7803 19.0684C16.2933 27.3192 15.0928 36.9453 15.0928 45.0127C18.0084 39.8789 20.6676 33.9202 22.8115 27.5947C27.2708 14.4851 26.4124 8.34278 25.6406 7.60938ZM55.5244 22.3691C44.1189 22.3692 40.2596 29.7944 39.2305 37.4951H68.3877C67.7016 30.6195 64.9575 22.3691 55.5244 22.3691ZM572.857 22.6436C565.054 22.6436 558.879 25.9441 558.879 32.2695C558.879 40.3101 578.324 35.4133 580.653 34.7949C583.252 34.1051 585.817 33.2856 588.26 32.4199C585.381 26.7652 580.214 22.6436 572.857 22.6436ZM157.569 9.62598L155.512 14.668L153.11 13.5684C154.139 10.9098 153.282 9.62603 150.452 9.62598V1.375H157.569V9.62598Z" fill="#789DBC"/>
</svg>
