<svg viewBox="0 0 61 61" fill="none" xmlns="http://www.w3.org/2000/svg">
<path d="M40.2342 55.7152C50.6754 52.1317 41.2377 38.5253 41.2377 38.5253C41.2377 38.5253 53.2205 46.8711 56.5469 31.7988C59.4315 18.7282 44.2633 22.5557 44.2633 22.5557C44.2633 22.5557 53.1871 11.4741 41.0577 7.36823C26.8733 2.5667 26.9129 17.0249 26.9129 17.0249C23.426 9.92504 15.1988 3.45644 8.83951 11.5596C3.32913 18.5809 6.85576 28.2234 17.6546 30.5713C4.19167 32.3227 5.28754 44.7868 11.8234 49.769C17.8626 53.7496 25.8576 45.7182 25.8576 45.7182C25.8576 45.7182 27.868 59.9593 40.2342 55.7152Z" stroke="#789DBC" stroke-width="6.5" stroke-linecap="round" stroke-linejoin="round"/>
<mask id="path-2-inside-1_1107_42" fill="white">
<path d="M34.5763 32.6335C37.527 25.7542 28.9229 25.1416 27.57 27.5627C24.1492 36.2777 33.0245 36.2545 34.5763 32.6335Z"/>
</mask>
<path d="M34.5763 32.6335C37.527 25.7542 28.9229 25.1416 27.57 27.5627C24.1492 36.2777 33.0245 36.2545 34.5763 32.6335Z" fill="#789DBC"/>
<!-- <path d="M34.5763 32.6335L28.1813 29.6918L28.1805 29.6937L34.5763 32.6335ZM27.57 27.5627L21.491 23.9789C21.3398 24.2493 21.207 24.5302 21.0935 24.8195L27.57 27.5627ZM34.5763 32.6335L40.9714 35.5752C42.1754 32.768 42.719 29.3541 41.3148 25.9969C39.909 22.636 37.1755 20.8231 34.8928 19.9921C32.6531 19.1766 30.285 19.0593 28.2316 19.4384C26.5052 19.7571 23.283 20.7719 21.491 23.9789L27.57 27.5627L33.6491 31.1465C33.0436 32.2301 32.2611 32.7644 31.8751 32.981C31.4661 33.2107 31.1701 33.2754 31.0693 33.294C30.9174 33.322 30.7696 33.3338 30.4812 33.2288C30.1499 33.1081 29.0987 32.587 28.5185 31.2001C27.94 29.8169 28.4526 29.0594 28.1813 29.6918L34.5763 32.6335ZM27.57 27.5627L21.0935 24.8195C19.9252 27.7957 19.3153 31.2174 20.3913 34.5628C21.5739 38.24 24.3663 40.5109 27.2795 41.4368C29.9631 42.2898 32.7017 42.0358 34.9183 41.2014C37.1013 40.3798 39.6569 38.6424 40.9722 35.5733L34.5763 32.6335L28.1805 29.6937C28.7198 28.4352 29.5841 28.0586 29.7734 27.9873C29.9964 27.9034 30.439 27.7894 31.1374 28.0114C31.532 28.1368 32.0559 28.3918 32.5624 28.8719C33.0899 29.372 33.4378 29.9663 33.6155 30.5189C33.9409 31.5307 33.5044 31.6872 34.0466 30.3058L27.57 27.5627Z" fill="#789DBC" mask="url(#path-2-inside-1_1107_42)"/> -->
</svg>
